<?xml version="1.0" encoding="UTF-8"?>
<svg version="1.1" xmlns="http://www.w3.org/2000/svg" width="192" height="192">
<path d="M0 0 C1.65 0.33 3.3 0.66 5 1 C5 1.66 5 2.32 5 3 C6.32 3.66 7.64 4.32 9 5 C9 5.66 9 6.32 9 7 C9.86625 6.34 10.7325 5.68 11.625 5 C15.22579376 2.86619629 16.90605837 2.3486911 21 3 C23.1519437 6.22791555 23.20086443 7.28400809 23 11 C24.2375 10.505 24.2375 10.505 25.5 10 C29.5873983 8.83217191 32.76923344 8.8541115 37 9 C38.1577506 12.47325181 38.06866652 15.36067448 38 19 C38.99 18.505 38.99 18.505 40 18 C41.875 17.83203125 41.875 17.83203125 44 17.8125 C44.70125 17.79832031 45.4025 17.78414062 46.125 17.76953125 C48 18 48 18 50 20 C50.23046875 21.875 50.23046875 21.875 50.1875 24 C50.18105469 24.70125 50.17460937 25.4025 50.16796875 26.125 C50 28 50 28 49 30 C50.093125 29.979375 51.18625 29.95875 52.3125 29.9375 C56 30 56 30 59 31 C59.1799928 36.21979128 58.97094808 40.07262981 57 45 C58.134375 45.144375 59.26875 45.28875 60.4375 45.4375 C64 46 64 46 65 47 C65.61317388 52.27329537 64.16733542 54.84287226 61 59 C62.32 59.66 63.64 60.32 65 61 C65 61.66 65 62.32 65 63 C65.99 63.33 66.98 63.66 68 64 C67.67 65.65 67.34 67.3 67 69 C66.34 69 65.68 69 65 69 C64.01 70.98 64.01 70.98 63 73 C62.34 73 61.68 73 61 73 C61.66 73.86625 62.32 74.7325 63 75.625 C65.13380371 79.22579376 65.6513089 80.90605837 65 85 C61.77208445 87.1519437 60.71599191 87.20086443 57 87 C57.33 87.825 57.66 88.65 58 89.5 C59.16782809 93.5873983 59.1458885 96.76923344 59 101 C55.52674819 102.1577506 52.63932552 102.06866652 49 102 C49.33 102.66 49.66 103.32 50 104 C50.16796875 105.875 50.16796875 105.875 50.1875 108 C50.20167969 108.70125 50.21585937 109.4025 50.23046875 110.125 C50 112 50 112 48 114 C44.98173347 114.27240673 42.03629378 114.08675125 39 114 C38.34 116.97 37.68 119.94 37 123 C31.78020872 123.1799928 27.92737019 122.97094808 23 121 C22.855625 122.134375 22.71125 123.26875 22.5625 124.4375 C22 128 22 128 21 129 C17.52743085 129.30867281 15.6127712 129.38701339 12.625 127.5 C12.08875 127.005 11.5525 126.51 11 126 C11 128.97 11 131.94 11 135 C11.99 135 12.98 135 14 135 C14 134.34 14 133.68 14 133 C14.85464844 132.79503906 15.70929688 132.59007812 16.58984375 132.37890625 C18.24693359 131.97478516 18.24693359 131.97478516 19.9375 131.5625 C21.03964844 131.29566406 22.14179687 131.02882812 23.27734375 130.75390625 C25.89421254 130.27004275 25.89421254 130.27004275 27 129 C31.22147874 128.68931356 35.45600567 128.72146063 39.6875 128.6875 C40.87279297 128.65849609 42.05808594 128.62949219 43.27929688 128.59960938 C54.38560476 128.51863237 54.38560476 128.51863237 59 133 C59 133.66 59 134.32 59 135 C59.61875 135.2475 60.2375 135.495 60.875 135.75 C63 137 63 137 63.875 139 C64.9199192 141.34687631 64.9199192 141.34687631 68.125 142.25 C69.07375 142.4975 70.0225 142.745 71 143 C71.22692276 146.32820054 71.32162419 148.41801336 69.6875 151.375 C68 153 68 153 65 153 C64.7525 153.61875 64.505 154.2375 64.25 154.875 C62.72490423 157.46766281 61.77890238 157.91772518 59 159 C54.88591314 159.42579096 50.75883802 159.32427061 46.625 159.3125 C45.5009375 159.32861328 44.376875 159.34472656 43.21875 159.36132812 C35.70863357 159.36576673 31.07217309 158.6532404 25.25 153.625 C21.74539885 149.53629866 20.69389292 146.35687391 21 141 C20.34 141 19.68 141 19 141 C19 141.66 19 142.32 19 143 C18.34 143 17.68 143 17 143 C16.70996094 144.24716797 16.70996094 144.24716797 16.4140625 145.51953125 C16.15367188 146.60621094 15.89328125 147.69289062 15.625 148.8125 C15.24214844 150.43091797 15.24214844 150.43091797 14.8515625 152.08203125 C14 155 14 155 12 158 C11.54398739 160.50896686 11.54398739 160.50896686 11.375 163.1875 C11.25125 164.775625 11.1275 166.36375 11 168 C5.06 168 -0.88 168 -7 168 C-7 164.37 -7 160.74 -7 157 C-7.66 157 -8.32 157 -9 157 C-9.48919922 155.42798828 -9.48919922 155.42798828 -9.98828125 153.82421875 C-10.42920535 152.44515825 -10.87063832 151.06626038 -11.3125 149.6875 C-11.52583984 148.99720703 -11.73917969 148.30691406 -11.95898438 147.59570312 C-13.51233665 142.64504775 -13.51233665 142.64504775 -17 139 C-20.32740404 138.00177879 -21.65044556 137.88348185 -25 139 C-26.17082878 141.92914165 -26.17082878 141.92914165 -27 145 C-27.33 145.66 -27.66 146.32 -28 147 C-28.99 147 -29.98 147 -31 147 C-31.10441406 147.60328125 -31.20882812 148.2065625 -31.31640625 148.828125 C-32.37256123 152.18368025 -34.11221403 153.2620572 -37.078125 155.015625 C-41.13316241 156.3817606 -44.93174789 156.48121269 -49.1875 156.5 C-50.36397095 156.50918457 -50.36397095 156.50918457 -51.56420898 156.51855469 C-56.2232621 156.41728172 -59.15233846 155.85245582 -63 153 C-64.546875 152.0409375 -64.546875 152.0409375 -66.125 151.0625 C-70.55932203 147.88135593 -70.55932203 147.88135593 -72 145 C-72.1875 142.125 -72.1875 142.125 -71 139 C-69.16808821 137.32777059 -67.24131701 135.97202526 -65.1875 134.58203125 C-62.36084749 132.53775577 -60.14449362 130.11714509 -57.8359375 127.515625 C-52.96031035 123.49063918 -47.06494486 123.66259359 -41.0625 123.6875 C-40.28970703 123.67138672 -39.51691406 123.65527344 -38.72070312 123.63867188 C-33.40657405 123.6341798 -29.74650659 124.60462583 -25 127 C-25 127.66 -25 128.32 -25 129 C-22.69 128.67 -20.38 128.34 -18 128 C-18.495 124.535 -18.495 124.535 -19 121 C-19.825 121.33 -20.65 121.66 -21.5 122 C-25.5873983 123.16782809 -28.76923344 123.1458885 -33 123 C-34.1577506 119.52674819 -34.06866652 116.63932552 -34 113 C-34.99 113.495 -34.99 113.495 -36 114 C-37.875 114.16796875 -37.875 114.16796875 -40 114.1875 C-41.051875 114.20876953 -41.051875 114.20876953 -42.125 114.23046875 C-44 114 -44 114 -46 112 C-46.27240673 108.98173347 -46.08675125 106.03629378 -46 103 C-48.97 102.34 -51.94 101.68 -55 101 C-55.1799928 95.78020872 -54.97094808 91.92737019 -53 87 C-54.7015625 86.7834375 -54.7015625 86.7834375 -56.4375 86.5625 C-60 86 -60 86 -61 85 C-61.61317388 79.72670463 -60.16733542 77.15712774 -57 73 C-58.32 72.34 -59.64 71.68 -61 71 C-61 70.34 -61 69.68 -61 69 C-61.99 68.67 -62.98 68.34 -64 68 C-63.67 66.35 -63.34 64.7 -63 63 C-62.34 63 -61.68 63 -61 63 C-60.34 61.68 -59.68 60.36 -59 59 C-58.34 59 -57.68 59 -57 59 C-57.99 57.700625 -57.99 57.700625 -59 56.375 C-61.13380371 52.77420624 -61.6513089 51.09394163 -61 47 C-57.77208445 44.8480563 -56.71599191 44.79913557 -53 45 C-53.33 44.175 -53.66 43.35 -54 42.5 C-55.16782809 38.4126017 -55.1458885 35.23076656 -55 31 C-52.03 30.34 -49.06 29.68 -46 29 C-46.04125 27.55625 -46.0825 26.1125 -46.125 24.625 C-46.1953125 22.1640625 -46.1953125 22.1640625 -46 20 C-44 18 -44 18 -41.8359375 17.8046875 C-39.55729167 17.86979167 -37.27864583 17.93489583 -35 18 C-34.34 15.03 -33.68 12.06 -33 9 C-27.78020872 8.8200072 -23.92737019 9.02905192 -19 11 C-18.855625 9.865625 -18.71125 8.73125 -18.5625 7.5625 C-18 4 -18 4 -17 3 C-11.72670463 2.38682612 -9.15712774 3.83266458 -5 7 C-4.34 5.68 -3.68 4.36 -3 3 C-2.34 3 -1.68 3 -1 3 C-0.67 2.01 -0.34 1.02 0 0 Z M-8.8125 126.375 C-10.81734783 127.86431553 -12.74213565 128.95170584 -15 130 C-14.195625 130.45375 -13.39125 130.9075 -12.5625 131.375 C-10 133 -10 133 -9 135 C-8.34 135 -7.68 135 -7 135 C-6.67 135.66 -6.34 136.32 -6 137 C-6 133.04 -6 129.08 -6 125 C-7.24639051 124.89926892 -7.24639051 124.89926892 -8.8125 126.375 Z " fill="#F8D31D" transform="translate(94,6)"/>
<path d="M0 0 C1.5625 1.375 1.5625 1.375 3 3 C4.155 3.45375 5.31 3.9075 6.5 4.375 C10.37343591 6.17338096 11.0756069 7.34365312 13 11 C13.99 11.33 14.98 11.66 16 12 C22.88364525 20.27263005 23.35151871 33.92551089 22.90136719 44.265625 C22.53196175 48.06122208 21.98982239 50.82590627 19.5 53.75 C17.49961806 56.14580627 16.5897933 57.91698957 16 61 C14.02 61.33 12.04 61.66 10 62 C9.91878906 62.59296875 9.83757812 63.1859375 9.75390625 63.796875 C8.49836969 67.46590413 5.66391098 68.78668018 2.5 70.8046875 C-1.24276861 72.59419874 -3.91686443 72.44543297 -8 72 C-8 72.66 -8 73.32 -8 74 C-23.79595474 74.65918204 -23.79595474 74.65918204 -30 71 C-30.33 70.01 -30.66 69.02 -31 68 C-32.11375 67.71125 -33.2275 67.4225 -34.375 67.125 C-38 66 -38 66 -39.6875 63.5 C-40.120625 62.675 -40.55375 61.85 -41 61 C-41.99 60.566875 -41.99 60.566875 -43 60.125 C-46.18870257 58.3313548 -46.70336895 55.30051541 -48 52 C-48.66 51.34 -49.32 50.68 -50 50 C-50.39467233 46.98802695 -50.66052908 44.08836511 -50.8125 41.0625 C-50.85818115 40.20744873 -50.9038623 39.35239746 -50.95092773 38.47143555 C-51.19551087 31.89258481 -50.45128744 26.1628413 -48 20 C-47.34 20 -46.68 20 -46 20 C-45.855625 19.4225 -45.71125 18.845 -45.5625 18.25 C-45.376875 17.5075 -45.19125 16.765 -45 16 C-44.9175 15.319375 -44.835 14.63875 -44.75 13.9375 C-43.62867314 11.04073895 -41.71533727 10.32455477 -39 9 C-38.34 9 -37.68 9 -37 9 C-36.67 8.01 -36.34 7.02 -36 6 C-34.34561387 5.30341637 -32.67745682 4.63903117 -31 4 C-30.3503125 3.2575 -30.3503125 3.2575 -29.6875 2.5 C-22.79045953 -3.63070264 -8.36882885 -1.67376577 0 0 Z " fill="#3C3828" transform="translate(110,36)"/>
<path d="M0 0 C2.475 0.495 2.475 0.495 5 1 C5 1.66 5 2.32 5 3 C6.32 3.66 7.64 4.32 9 5 C9 5.66 9 6.32 9 7 C9.86625 6.34 10.7325 5.68 11.625 5 C15.22579376 2.86619629 16.90605837 2.3486911 21 3 C23.1519437 6.22791555 23.20086443 7.28400809 23 11 C24.2375 10.505 24.2375 10.505 25.5 10 C29.5873983 8.83217191 32.76923344 8.8541115 37 9 C38.1577506 12.47325181 38.06866652 15.36067448 38 19 C38.99 18.505 38.99 18.505 40 18 C41.875 17.83203125 41.875 17.83203125 44 17.8125 C44.70125 17.79832031 45.4025 17.78414062 46.125 17.76953125 C48 18 48 18 50 20 C50.23046875 21.875 50.23046875 21.875 50.1875 24 C50.18105469 24.70125 50.17460937 25.4025 50.16796875 26.125 C50 28 50 28 49 30 C50.093125 29.979375 51.18625 29.95875 52.3125 29.9375 C56 30 56 30 59 31 C59.1799928 36.21979128 58.97094808 40.07262981 57 45 C58.134375 45.144375 59.26875 45.28875 60.4375 45.4375 C64 46 64 46 65 47 C65.61317388 52.27329537 64.16733542 54.84287226 61 59 C62.32 59.66 63.64 60.32 65 61 C65 61.66 65 62.32 65 63 C66.485 63.495 66.485 63.495 68 64 C67.67 65.65 67.34 67.3 67 69 C66.34 69 65.68 69 65 69 C64.01 70.98 64.01 70.98 63 73 C62.34 73 61.68 73 61 73 C61.66 73.86625 62.32 74.7325 63 75.625 C65.13380371 79.22579376 65.6513089 80.90605837 65 85 C61.5647952 87.29013653 60.014669 87.17842973 56 87 C55.67 87.66 55.34 88.32 55 89 C55 88.34 55 87.68 55 87 C53.515 86.505 53.515 86.505 52 86 C52 85.34 52 84.68 52 84 C51.2265625 83.814375 51.2265625 83.814375 50.4375 83.625 C47.27297649 82.81358372 44.13875015 81.9054087 41 81 C41 80.67 41 80.34 41 80 C42.98 79.67 44.96 79.34 47 79 C47.495 77.515 47.495 77.515 48 76 C45.69 75.34 43.38 74.68 41 74 C40.97296438 71.41659616 40.95314389 68.83347692 40.9375 66.25 C40.92912109 65.52039063 40.92074219 64.79078125 40.91210938 64.0390625 C40.89608316 60.51329442 41.04707287 57.38965084 42 54 C40.515 54.495 40.515 54.495 39 55 C37.82786955 53.21190303 36.66244474 51.41940875 35.5 49.625 C34.52546875 48.12839844 34.52546875 48.12839844 33.53125 46.6015625 C32 44 32 44 32 42 C31.4225 41.95875 30.845 41.9175 30.25 41.875 C26.73649486 40.50863689 25.72422981 38.26372071 24 35 C23.8125 31.9375 23.8125 31.9375 24 29 C23.690625 27.6696875 23.690625 27.6696875 23.375 26.3125 C23 24 23 24 25 21 C24.236875 21.763125 23.47375 22.52625 22.6875 23.3125 C20.79166667 25.20833333 18.89583333 27.10416667 17 29 C17 26.03 17 23.06 17 20 C16.01 22.97 15.02 25.94 14 29 C12.515 28.505 12.515 28.505 11 28 C11 27.67 11 27.34 11 27 C5.39 27 -0.22 27 -6 27 C-6.495 26.01 -6.495 26.01 -7 25 C-7.99 25 -8.98 25 -10 25 C-10.33 26.32 -10.66 27.64 -11 29 C-11.99 29 -12.98 29 -14 29 C-14 28.34 -14 27.68 -14 27 C-14.66 27 -15.32 27 -16 27 C-16.433125 26.195625 -16.86625 25.39125 -17.3125 24.5625 C-18.76787059 21.75717669 -18.76787059 21.75717669 -21.6875 21.1875 C-22.8321875 21.0946875 -22.8321875 21.0946875 -24 21 C-25.29676812 25.61073111 -24.71109139 29.33840089 -24 34 C-24.99 34 -25.98 34 -27 34 C-26.67 34.66 -26.34 35.32 -26 36 C-27.98 36.495 -27.98 36.495 -30 37 C-30 37.33 -30 37.66 -30 38 C-30 38.99 -30 39.98 -30 41 C-33.465 40.505 -33.465 40.505 -37 40 C-36.67 40.66 -36.34 41.32 -36 42 C-36.99 42.495 -36.99 42.495 -38 43 C-38.65213292 45.02463255 -38.65213292 45.02463255 -39 47 C-37.02 47 -35.04 47 -33 47 C-33.33 48.65 -33.66 50.3 -34 52 C-34.69867188 52.02578125 -35.39734375 52.0515625 -36.1171875 52.078125 C-37.02726562 52.13484375 -37.93734375 52.1915625 -38.875 52.25 C-39.77992187 52.29640625 -40.68484375 52.3428125 -41.6171875 52.390625 C-42.79667969 52.69226562 -42.79667969 52.69226562 -44 53 C-44.69170079 54.32051969 -45.35828945 55.65447787 -46 57 C-48.1640625 57.828125 -48.1640625 57.828125 -50.625 58.25 C-51.44226562 58.39953125 -52.25953125 58.5490625 -53.1015625 58.703125 C-54.04128906 58.85007812 -54.04128906 58.85007812 -55 59 C-55.495 57.515 -55.495 57.515 -56 56 C-56.99 56 -57.98 56 -59 56 C-61.30019361 52.54970958 -61.43132515 51.05445642 -61 47 C-57.77208445 44.8480563 -56.71599191 44.79913557 -53 45 C-53.33 44.175 -53.66 43.35 -54 42.5 C-55.16782809 38.4126017 -55.1458885 35.23076656 -55 31 C-52.03 30.34 -49.06 29.68 -46 29 C-46.061875 26.834375 -46.061875 26.834375 -46.125 24.625 C-46.1953125 22.1640625 -46.1953125 22.1640625 -46 20 C-44 18 -44 18 -41.8359375 17.8046875 C-38.41796875 17.90234375 -38.41796875 17.90234375 -35 18 C-34.34 15.03 -33.68 12.06 -33 9 C-27.78020872 8.8200072 -23.92737019 9.02905192 -19 11 C-18.855625 9.865625 -18.71125 8.73125 -18.5625 7.5625 C-18 4 -18 4 -17 3 C-11.72670463 2.38682612 -9.15712774 3.83266458 -5 7 C-4.34 5.68 -3.68 4.36 -3 3 C-2.34 3 -1.68 3 -1 3 C-0.67 2.01 -0.34 1.02 0 0 Z " fill="#F9D41D" transform="translate(94,6)"/>
<path d="M0 0 C0.99 0 1.98 0 3 0 C3.2475 0.639375 3.495 1.27875 3.75 1.9375 C4.81562433 4.18741541 4.81562433 4.18741541 7.125 4.75 C7.74375 4.8325 8.3625 4.915 9 5 C9.33 4.01 9.66 3.02 10 2 C12.475 1.505 12.475 1.505 15 1 C15.495 6.445 15.495 6.445 16 12 C16.99 12 17.98 12 19 12 C19 11.34 19 10.68 19 10 C19.85464844 9.79503906 20.70929688 9.59007812 21.58984375 9.37890625 C22.69457031 9.10949219 23.79929687 8.84007812 24.9375 8.5625 C26.03964844 8.29566406 27.14179687 8.02882812 28.27734375 7.75390625 C30.89421254 7.27004275 30.89421254 7.27004275 32 6 C36.22147874 5.68931356 40.45600567 5.72146063 44.6875 5.6875 C45.87279297 5.65849609 47.05808594 5.62949219 48.27929688 5.59960938 C59.38560476 5.51863237 59.38560476 5.51863237 64 10 C64 10.66 64 11.32 64 12 C64.928125 12.37125 64.928125 12.37125 65.875 12.75 C68 14 68 14 68.875 16 C69.9199192 18.34687631 69.9199192 18.34687631 73.125 19.25 C74.07375 19.4975 75.0225 19.745 76 20 C76.22692276 23.32820054 76.32162419 25.41801336 74.6875 28.375 C73 30 73 30 70 30 C69.7525 30.61875 69.505 31.2375 69.25 31.875 C67.72490423 34.46766281 66.77890238 34.91772518 64 36 C59.88591314 36.42579096 55.75883802 36.32427061 51.625 36.3125 C50.5009375 36.32861328 49.376875 36.34472656 48.21875 36.36132812 C40.70863357 36.36576673 36.07217309 35.6532404 30.25 30.625 C26.74539885 26.53629866 25.69389292 23.35687391 26 18 C25.34 18 24.68 18 24 18 C24 18.66 24 19.32 24 20 C23.34 20 22.68 20 22 20 C21.80664062 20.83144531 21.61328125 21.66289062 21.4140625 22.51953125 C21.15367188 23.60621094 20.89328125 24.69289062 20.625 25.8125 C20.24214844 27.43091797 20.24214844 27.43091797 19.8515625 29.08203125 C19 32 19 32 17 35 C16.54398739 37.50896686 16.54398739 37.50896686 16.375 40.1875 C16.189375 42.5696875 16.189375 42.5696875 16 45 C10.06 45 4.12 45 -2 45 C-2 41.37 -2 37.74 -2 34 C-2.66 34 -3.32 34 -4 34 C-4.32613281 32.95199219 -4.65226562 31.90398437 -4.98828125 30.82421875 C-5.42920535 29.44515825 -5.87063832 28.06626038 -6.3125 26.6875 C-6.63250977 25.65206055 -6.63250977 25.65206055 -6.95898438 24.59570312 C-8.51233665 19.64504775 -8.51233665 19.64504775 -12 16 C-15.32740404 15.00177879 -16.65044556 14.88348185 -20 16 C-21.17082878 18.92914165 -21.17082878 18.92914165 -22 22 C-22.33 22.66 -22.66 23.32 -23 24 C-23.99 24 -24.98 24 -26 24 C-26.10441406 24.60328125 -26.20882812 25.2065625 -26.31640625 25.828125 C-27.37256123 29.18368025 -29.11221403 30.2620572 -32.078125 32.015625 C-36.13316241 33.3817606 -39.93174789 33.48121269 -44.1875 33.5 C-45.36397095 33.50918457 -45.36397095 33.50918457 -46.56420898 33.51855469 C-51.2232621 33.41728172 -54.15233846 32.85245582 -58 30 C-59.03125 29.360625 -60.0625 28.72125 -61.125 28.0625 C-65.55932203 24.88135593 -65.55932203 24.88135593 -67 22 C-67.1875 19.125 -67.1875 19.125 -66 16 C-64.16808821 14.32777059 -62.24131701 12.97202526 -60.1875 11.58203125 C-57.36084749 9.53775577 -55.14449362 7.11714509 -52.8359375 4.515625 C-47.96031035 0.49063918 -42.06494486 0.66259359 -36.0625 0.6875 C-35.28970703 0.67138672 -34.51691406 0.65527344 -33.72070312 0.63867188 C-28.40657405 0.6341798 -24.74650659 1.60462583 -20 4 C-20 4.66 -20 5.32 -20 6 C-19.34773438 5.95359375 -18.69546875 5.9071875 -18.0234375 5.859375 C-11.97682032 5.6096622 -8.57420498 5.90729028 -4 10 C-4 10.66 -4 11.32 -4 12 C-3.34 12 -2.68 12 -2 12 C-1.93941406 11.21753906 -1.87882812 10.43507812 -1.81640625 9.62890625 C-1.69072266 8.11103516 -1.69072266 8.11103516 -1.5625 6.5625 C-1.44068359 5.04849609 -1.44068359 5.04849609 -1.31640625 3.50390625 C-1 1 -1 1 0 0 Z " fill="#64981C" transform="translate(89,129)"/>
<path d="M0 0 C1.32 0.33 2.64 0.66 4 1 C4 1.99 4 2.98 4 4 C4.66 4 5.32 4 6 4 C6 4.99 6 5.98 6 7 C6.99 7 7.98 7 9 7 C9 8.98 9 10.96 9 13 C10.32 13.33 11.64 13.66 13 14 C11.68 14 10.36 14 9 14 C9.04125 15.0725 9.0825 16.145 9.125 17.25 C9.0114175 20.65747485 8.78726636 22.20739631 7 25 C2.53160785 25.21278058 -0.82262526 24.59138085 -5 23 C-5.2165625 24.7015625 -5.2165625 24.7015625 -5.4375 26.4375 C-6 30 -6 30 -7 31 C-9.75 31.3125 -9.75 31.3125 -13 31 C-13.845625 30.319375 -14.69125 29.63875 -15.5625 28.9375 C-17.84074479 26.69094577 -17.84074479 26.69094577 -20.75 27.125 C-23.16739744 27.77519536 -23.16739744 27.77519536 -24 30 C-25.65 29.67 -27.3 29.34 -29 29 C-29.1546875 28.0409375 -29.1546875 28.0409375 -29.3125 27.0625 C-29.539375 26.381875 -29.76625 25.70125 -30 25 C-30.99 24.67 -31.98 24.34 -33 24 C-32.01 24 -31.02 24 -30 24 C-30.020625 22.72125 -30.04125 21.4425 -30.0625 20.125 C-30.125 16.25 -30.125 16.25 -29 14 C-28.34 14 -27.68 14 -27 14 C-27.309375 12.824375 -27.309375 12.824375 -27.625 11.625 C-27.74875 10.75875 -27.8725 9.8925 -28 9 C-26 7 -26 7 -24.0546875 6.8046875 C-22.03645833 6.86979167 -20.01822917 6.93489583 -18 7 C-17.67 6.34 -17.34 5.68 -17 5 C-14.93359375 4.3671875 -14.93359375 4.3671875 -12.4375 3.875 C-11.61121094 3.70742187 -10.78492187 3.53984375 -9.93359375 3.3671875 C-9.29550781 3.24601562 -8.65742187 3.12484375 -8 3 C-7.34 5.64 -6.68 8.28 -6 11 C-5.01 11 -4.02 11 -3 11 C-2.67 11.66 -2.34 12.32 -2 13 C-0.68 12.34 0.64 11.68 2 11 C1.505 9.6696875 1.505 9.6696875 1 8.3125 C0.08777857 5.29076653 -0.18330958 3.11626294 0 0 Z " fill="#F6D21E" transform="translate(122,104)"/>
<path d="M0 0 C1.06546953 3.1964086 1.07427838 5.65747276 1 9 C1.556875 8.05125 2.11375 7.1025 2.6875 6.125 C5.06570302 2.91121213 6.24034426 2.04434882 10 1 C9.505 1.598125 9.01 2.19625 8.5 2.8125 C6.71723582 4.97029994 6.71723582 4.97029994 7 8 C7.495 9.485 7.495 9.485 8 11 C7.5625 13.6875 7.5625 13.6875 7 16 C1.25 14.25 1.25 14.25 -1 12 C-3.6133554 11.66307638 -6.12603165 11.44181744 -8.75 11.3125 C-9.80574219 11.24192383 -9.80574219 11.24192383 -10.8828125 11.16992188 C-15.09481237 10.9311375 -18.83718509 11.18399367 -23 12 C-24.41623496 12.1098803 -25.83286834 12.21486298 -27.25 12.3125 C-28.4875 12.539375 -29.725 12.76625 -31 13 C-32.30065921 14.93383287 -32.30065921 14.93383287 -33 17 C-33.598125 17.144375 -34.19625 17.28875 -34.8125 17.4375 C-37.31877109 17.88423147 -37.31877109 17.88423147 -39.5625 20.5625 C-40.366875 21.366875 -41.17125 22.17125 -42 23 C-42.99 23 -43.98 23 -45 23 C-45.2165625 24.1446875 -45.2165625 24.1446875 -45.4375 25.3125 C-46 28 -46 28 -47 31 C-47.66 31 -48.32 31 -49 31 C-51.2054634 41.04273512 -51.20430975 50.78451249 -51 61 C-57.58928571 58.94642857 -57.58928571 58.94642857 -60 56 C-58.02 55.505 -58.02 55.505 -56 55 C-56 54.01 -56 53.02 -56 52 C-57.65 51.67 -59.3 51.34 -61 51 C-61 50.34 -61 49.68 -61 49 C-57.535 48.505 -57.535 48.505 -54 48 C-54 45.03 -54 42.06 -54 39 C-56.97 38.67 -59.94 38.34 -63 38 C-62 34 -62 34 -61 33 C-59.31816052 32.76712992 -57.6287584 32.58735834 -55.9375 32.4375 C-55.01839844 32.35371094 -54.09929688 32.26992188 -53.15234375 32.18359375 C-52.44207031 32.12300781 -51.73179688 32.06242187 -51 32 C-50.67 30.68 -50.34 29.36 -50 28 C-51.98 28 -53.96 28 -56 28 C-55.835 27.236875 -55.67 26.47375 -55.5 25.6875 C-54.90854604 22.96403764 -54.90854604 22.96403764 -55 20 C-49.25 20.875 -49.25 20.875 -47 22 C-47.66 20.02 -48.32 18.04 -49 16 C-48.01 16.33 -47.02 16.66 -46 17 C-45.34 16.67 -44.68 16.34 -44 16 C-44.66 15.01 -45.32 14.02 -46 13 C-44.35 13.66 -42.7 14.32 -41 15 C-41.16757813 14.24074219 -41.33515625 13.48148438 -41.5078125 12.69921875 C-41.71148437 11.70535156 -41.91515625 10.71148437 -42.125 9.6875 C-42.33382812 8.70136719 -42.54265625 7.71523438 -42.7578125 6.69921875 C-43 4 -43 4 -41 1 C-35.25 2.75 -35.25 2.75 -33 5 C-33 5.99 -33 6.98 -33 8 C-32.34 8 -31.68 8 -31 8 C-31 8.66 -31 9.32 -31 10 C-30.01 10 -29.02 10 -28 10 C-28 8.35 -28 6.7 -28 5 C-25.525 5.495 -25.525 5.495 -23 6 C-23 6.66 -23 7.32 -23 8 C-17.39 8 -11.78 8 -6 8 C-5.67 7.01 -5.34 6.02 -5 5 C-5 6.32 -5 7.64 -5 9 C-4.34 9.33 -3.68 9.66 -3 10 C-2.86722656 9.36191406 -2.73445313 8.72382812 -2.59765625 8.06640625 C-2.42105469 7.24011719 -2.24445313 6.41382813 -2.0625 5.5625 C-1.88847656 4.73878906 -1.71445313 3.91507813 -1.53515625 3.06640625 C-1 1 -1 1 0 0 Z " fill="#EFC219" transform="translate(111,25)"/>
<path d="M0 0 C2 1 2 1 4 4 C5.65 3.67 7.3 3.34 9 3 C8.26330078 3.98033203 8.26330078 3.98033203 7.51171875 4.98046875 C5.59342408 8.81210125 5.66698659 12.13738444 5.8125 16.3125 C5.82603516 17.05306641 5.83957031 17.79363281 5.85351562 18.55664062 C5.88864021 20.37141075 5.94244028 22.18580288 6 24 C10.455 24.99 10.455 24.99 15 26 C14.01 26.33 13.02 26.66 12 27 C11.67 27.99 11.34 28.98 11 30 C8.36 30 5.72 30 3 30 C3 30.99 3 31.98 3 33 C3.66 33 4.32 33 5 33 C5 33.66 5 34.32 5 35 C5.66 35 6.32 35 7 35 C6.625 37.4375 6.625 37.4375 6 40 C2.79937313 41.60031344 0.27728194 40.03173691 -3 39 C-3.33 39.66 -3.66 40.32 -4 41 C-3.6691062 37.44289168 -3.45242532 35.4948402 -1 32.8125 C5.1707544 24.13487662 1.24334773 9.91595503 0 0 Z " fill="#DEB116" transform="translate(130,56)"/>
<path d="M0 0 C-0.66 1.98 -1.32 3.96 -2 6 C-3.32 6 -4.64 6 -6 6 C-6 6.99 -6 7.98 -6 9 C-5.01 9 -4.02 9 -3 9 C-2.01 11.97 -1.02 14.94 0 18 C-0.99 18.99 -1.98 19.98 -3 21 C-3.99 20.67 -4.98 20.34 -6 20 C-6 19.34 -6 18.68 -6 18 C-6.99 18 -7.98 18 -9 18 C-10.76462683 14.91190305 -11 13.76687864 -11 10 C-12.32 10.33 -13.64 10.66 -15 11 C-12.12555907 7.96586791 -9.70858653 5.85429327 -6 4 C-5.67 3.01 -5.34 2.02 -5 1 C-2 0 -2 0 0 0 Z " fill="#F1C319" transform="translate(125,97)"/>
<path d="M0 0 C1.37478516 0.01740234 1.37478516 0.01740234 2.77734375 0.03515625 C3.69644531 0.04417969 4.61554687 0.05320313 5.5625 0.0625 C6.27277344 0.07410156 6.98304687 0.08570313 7.71484375 0.09765625 C7.43781798 3.72393249 7.1407515 7.3482898 6.83984375 10.97265625 C6.72189453 12.52146484 6.72189453 12.52146484 6.6015625 14.1015625 C6.51777344 15.08769531 6.43398438 16.07382813 6.34765625 17.08984375 C6.27434082 18.0010498 6.20102539 18.91225586 6.12548828 19.85107422 C5.71484375 22.09765625 5.71484375 22.09765625 3.71484375 24.09765625 C1.08984375 24.22265625 1.08984375 24.22265625 -1.28515625 24.09765625 C0.03484375 23.43765625 1.35484375 22.77765625 2.71484375 22.09765625 C2.71484375 21.10765625 2.71484375 20.11765625 2.71484375 19.09765625 C1.06484375 18.76765625 -0.58515625 18.43765625 -2.28515625 18.09765625 C-2.28515625 17.43765625 -2.28515625 16.77765625 -2.28515625 16.09765625 C1.17984375 15.60265625 1.17984375 15.60265625 4.71484375 15.09765625 C4.71484375 12.12765625 4.71484375 9.15765625 4.71484375 6.09765625 C1.74484375 5.76765625 -1.22515625 5.43765625 -4.28515625 5.09765625 C-3.0432556 0.13005366 -3.0432556 0.13005366 0 0 Z " fill="#E1B316" transform="translate(52.28515625,57.90234375)"/>
<path d="M0 0 C0.93065133 2.60582371 1.14917407 3.64198224 0.0625 6.25 C-0.288125 6.8275 -0.63875 7.405 -1 8 C-1.66 8 -2.32 8 -3 8 C-5.2054634 18.04273512 -5.20430975 27.78451249 -5 38 C-6.98 37.34 -8.96 36.68 -11 36 C-10.5153125 35.47277344 -10.030625 34.94554687 -9.53125 34.40234375 C-7.56548683 31.31830204 -7.59915861 29.20244732 -7.5 25.5625 C-7.14907842 18.44700504 -5.81549068 11.87374457 -4 5 C-5.32 4.67 -6.64 4.34 -8 4 C-7.67 3.34 -7.34 2.68 -7 2 C-4.6859378 1.26924352 -2.35171131 0.59861742 0 0 Z " fill="#A58415" transform="translate(65,48)"/>
<path d="M0 0 C1.06546953 3.1964086 1.07427838 5.65747276 1 9 C1.556875 8.05125 2.11375 7.1025 2.6875 6.125 C5.06570302 2.91121213 6.24034426 2.04434882 10 1 C9.505 1.598125 9.01 2.19625 8.5 2.8125 C6.71723582 4.97029994 6.71723582 4.97029994 7 8 C7.33 8.99 7.66 9.98 8 11 C7.5625 13.6875 7.5625 13.6875 7 16 C1.33846154 14.52307692 1.33846154 14.52307692 -0.375 11.875 C-0.58125 11.25625 -0.7875 10.6375 -1 10 C-1.66 10 -2.32 10 -3 10 C-2.69201674 8.51988629 -2.378482 7.04092675 -2.0625 5.5625 C-1.88847656 4.73878906 -1.71445313 3.91507813 -1.53515625 3.06640625 C-1 1 -1 1 0 0 Z " fill="#F0C51B" transform="translate(111,25)"/>
<path d="M0 0 C0.99 0.33 1.98 0.66 3 1 C3 1.66 3 2.32 3 3 C8.61 3 14.22 3 20 3 C20.33 2.01 20.66 1.02 21 0 C21 1.32 21 2.64 21 4 C22.32 4.66 23.64 5.32 25 6 C24.44650879 5.98952637 23.89301758 5.97905273 23.32275391 5.96826172 C9.03572158 5.65163147 9.03572158 5.65163147 -5 8 C-4 6 -4 6 -1 5 C-0.67 3.35 -0.34 1.7 0 0 Z " fill="#B69216" transform="translate(85,30)"/>
<path d="M0 0 C2 1 2 1 4 4 C5.65 3.67 7.3 3.34 9 3 C8.51917969 3.67417969 8.03835937 4.34835938 7.54296875 5.04296875 C5.68179418 8.60982735 5.49954907 11.30964992 5.3125 15.3125 C5.24675781 16.56675781 5.18101562 17.82101563 5.11328125 19.11328125 C5.07589844 20.06589844 5.03851563 21.01851562 5 22 C4.34 22 3.68 22 3 22 C2.12170946 19.36512838 1.74014897 17.28547977 1.46484375 14.55078125 C1.37783203 13.70322266 1.29082031 12.85566406 1.20117188 11.98242188 C1.11416016 11.10134766 1.02714844 10.22027344 0.9375 9.3125 C0.84662109 8.41982422 0.75574219 7.52714844 0.66210938 6.60742188 C0.43835801 4.40523735 0.21777399 2.20278232 0 0 Z " fill="#B49117" transform="translate(130,56)"/>
<path d="M0 0 C1.9375 1.125 1.9375 1.125 4 3 C4.75 6.1875 4.75 6.1875 5 9 C-0.75 12 -0.75 12 -3 12 C-3.33 10.02 -3.66 8.04 -4 6 C-2.68 5.34 -1.36 4.68 0 4 C0 2.68 0 1.36 0 0 Z " fill="#D1A615" transform="translate(60,86)"/>
<path d="M0 0 C2.64 0 5.28 0 8 0 C8 0.33 8 0.66 8 1 C6.35 1 4.7 1 3 1 C2.67 1.99 2.34 2.98 2 4 C-0.64 4 -3.28 4 -6 4 C-6.5534764 6.07553648 -7 7.84365964 -7 10 C-7.66 10 -8.32 10 -9 10 C-9 10.66 -9 11.32 -9 12 C-9.66 12 -10.32 12 -11 12 C-11 9.03 -11 6.06 -11 3 C-11.99 3 -12.98 3 -14 3 C-13.67 2.34 -13.34 1.68 -13 1 C-8.71 1.33 -4.42 1.66 0 2 C0 1.34 0 0.68 0 0 Z " fill="#EEC018" transform="translate(102,108)"/>
<path d="M0 0 C-0.66 1.98 -1.32 3.96 -2 6 C-3.65 6 -5.3 6 -7 6 C-6.67 8.31 -6.34 10.62 -6 13 C-7.65 13.33 -9.3 13.66 -11 14 C-11 12.68 -11 11.36 -11 10 C-12.32 10.33 -13.64 10.66 -15 11 C-12.12555907 7.96586791 -9.70858653 5.85429327 -6 4 C-5.67 3.01 -5.34 2.02 -5 1 C-2 0 -2 0 0 0 Z " fill="#CDA316" transform="translate(125,97)"/>
<path d="M0 0 C1.08667969 0.29197266 1.08667969 0.29197266 2.1953125 0.58984375 C2.74960938 0.74582031 3.30390625 0.90179688 3.875 1.0625 C2.885 2.5475 2.885 2.5475 1.875 4.0625 C1.16687186 6.38358669 0.49475848 8.71627147 -0.125 11.0625 C-0.41375 10.423125 -0.7025 9.78375 -1 9.125 C-1.95323451 6.91043921 -1.95323451 6.91043921 -4.125 6.0625 C-4.125 5.4025 -4.125 4.7425 -4.125 4.0625 C-5.445 4.3925 -6.765 4.7225 -8.125 5.0625 C-6.28836609 -0.05383732 -5.3996034 -1.48053642 0 0 Z " fill="#EDC31B" transform="translate(83.125,106.9375)"/>
<path d="M0 0 C-1.44253657 3.36591866 -3.33264727 5.51047079 -6 8 C-1.49933525 6.93204565 2.7494534 5.85961414 7 4 C7 6 7 6 5.5625 7.5 C1.91728371 9.63378514 -1.87563571 10.25091674 -6 11 C-7.98 7.535 -7.98 7.535 -10 4 C-3.375 0 -3.375 0 0 0 Z " fill="#E9BC18" transform="translate(139,50)"/>
<path d="M0 0 C0 0.99 0 1.98 0 3 C-0.66 3.66 -1.32 4.32 -2 5 C-2 5.99 -2 6.98 -2 8 C-1.2575 7.05125 -0.515 6.1025 0.25 5.125 C2.27845219 2.67467599 3.9577848 1.12674637 7 0 C5.82744291 3.33727786 4.81131596 5.77437487 2 8 C1.34 8 0.68 8 0 8 C0 8.99 0 9.98 0 11 C-1.8125 10.8125 -1.8125 10.8125 -4 10 C-5.75 7.4375 -5.75 7.4375 -7 5 C-6.401875 4.731875 -5.80375 4.46375 -5.1875 4.1875 C-3.02775192 3.01506533 -1.64209744 1.80630718 0 0 Z " fill="#EBBF19" transform="translate(126,37)"/>
<path d="M0 0 C0.33 0 0.66 0 1 0 C1.06058594 0.77085937 1.12117188 1.54171875 1.18359375 2.3359375 C1.26738281 3.33882812 1.35117188 4.34171875 1.4375 5.375 C1.55931641 6.87160156 1.55931641 6.87160156 1.68359375 8.3984375 C1.84965626 10.97927613 1.84965626 10.97927613 3 13 C2.68404492 14.67004829 2.34820041 16.33637583 2 18 C1.9629721 19.6662553 1.95240038 21.33401319 2 23 C2.66 23 3.32 23 4 23 C4 23.66 4 24.32 4 25 C2.0625 24.4375 2.0625 24.4375 0 23 C-1.71757659 16.70221916 -2.91100092 5.82200183 0 0 Z " fill="#598319" transform="translate(101,149)"/>
<path d="M0 0 C1.32 0.99 2.64 1.98 4 3 C3.67 4.65 3.34 6.3 3 8 C0.69 8.33 -1.62 8.66 -4 9 C-4.33 9.99 -4.66 10.98 -5 12 C-5.66 12 -6.32 12 -7 12 C-6.835 11.236875 -6.67 10.47375 -6.5 9.6875 C-5.90854604 6.96403764 -5.90854604 6.96403764 -6 4 C-0.25 4.875 -0.25 4.875 2 6 C1.34 4.02 0.68 2.04 0 0 Z " fill="#F0C51A" transform="translate(62,41)"/>
<path d="M0 0 C0 0.99 0 1.98 0 3 C-0.721875 3.226875 -1.44375 3.45375 -2.1875 3.6875 C-5.19490034 4.89587516 -5.19490034 4.89587516 -7.625 7.625 C-8.40875 8.40875 -9.1925 9.1925 -10 10 C-10.99 10 -11.98 10 -13 10 C-13.33 8.02 -13.66 6.04 -14 4 C-13.32453125 3.87882812 -12.6490625 3.75765625 -11.953125 3.6328125 C-10.61507812 3.38144531 -10.61507812 3.38144531 -9.25 3.125 C-8.36828125 2.96257813 -7.4865625 2.80015625 -6.578125 2.6328125 C-4.13052256 2.03203736 -2.19400143 1.22002883 0 0 Z " fill="#C99F14" transform="translate(79,38)"/>
<path d="M0 0 C0.66 0.33 1.32 0.66 2 1 C2 4.11227195 1.54372951 6.94152152 1 10 C-4.75 8.375 -4.75 8.375 -7 5 C-6.01 4.67 -5.02 4.34 -4 4 C-2.62804426 2.70644173 -1.28817344 1.37701298 0 0 Z " fill="#D0A415" transform="translate(117,31)"/>
<path d="M0 0 C0.33 1.98 0.66 3.96 1 6 C1.99 6.33 2.98 6.66 4 7 C2.02 7.99 0.04 8.98 -2 10 C-2.33 7.69 -2.66 5.38 -3 3 C-3.66 3 -4.32 3 -5 3 C-5 2.34 -5 1.68 -5 1 C-3 0 -3 0 0 0 Z " fill="#DCAD15" transform="translate(76,31)"/>
<path d="M0 0 C-1.65 0.33 -3.3 0.66 -5 1 C-5.33 2.65 -5.66 4.3 -6 6 C-3.69 6 -1.38 6 1 6 C1 6.66 1 7.32 1 8 C-1.97 8.66 -4.94 9.32 -8 10 C-8.43489791 4.69424556 -8.43489791 4.69424556 -8 2 C-4.92424881 -0.74323755 -3.96809386 -1.32269795 0 0 Z " fill="#ECBF18" transform="translate(143,62)"/>
<path d="M0 0 C2.375 0.6875 2.375 0.6875 5 2 C6.3125 4.625 6.3125 4.625 7 7 C6.4225 7.103125 5.845 7.20625 5.25 7.3125 C2.67950842 8.09792798 1.06342716 9.30504197 -1 11 C0.15173355 8.53199953 1.04783565 6.95216435 3 5 C2.401875 5.33 1.80375 5.66 1.1875 6 C-1 7 -1 7 -4 7 C-3.525625 6.401875 -3.05125 5.80375 -2.5625 5.1875 C-0.83534256 2.99617076 -0.83534256 2.99617076 0 0 Z " fill="#D3AA17" transform="translate(65,95)"/>
<path d="M0 0 C0.625 3.375 0.625 3.375 1 7 C-1 9 -1 9 -3.625 9.125 C-4.40875 9.08375 -5.1925 9.0425 -6 9 C-4.68 8.34 -3.36 7.68 -2 7 C-2 6.01 -2 5.02 -2 4 C-3.65 3.67 -5.3 3.34 -7 3 C-7 2.34 -7 1.68 -7 1 C-2.25 0 -2.25 0 0 0 Z " fill="#EDC019" transform="translate(57,73)"/>
<path d="M0 0 C0.93065133 2.60582371 1.14917407 3.64198224 0.0625 6.25 C-0.4634375 7.11625 -0.4634375 7.11625 -1 8 C-1.99 8 -2.98 8 -4 8 C-4 7.01 -4 6.02 -4 5 C-5.32 4.67 -6.64 4.34 -8 4 C-7.67 3.34 -7.34 2.68 -7 2 C-4.6859378 1.26924352 -2.35171131 0.59861742 0 0 Z " fill="#C9A016" transform="translate(65,48)"/>
<path d="M0 0 C0.33 3.3 0.66 6.6 1 10 C-1.31 10 -3.62 10 -6 10 C-5.67 9.34 -5.34 8.68 -5 8 C-4.34 8.33 -3.68 8.66 -3 9 C-3 6.36 -3 3.72 -3 1 C-1 0 -1 0 0 0 Z " fill="#EFC219" transform="translate(94,23)"/>
<path d="M0 0 C6.625 0.625 6.625 0.625 10 4 C7.03 3.67 4.06 3.34 1 3 C1.99 4.98 2.98 6.96 4 9 C1.00675737 7.9024777 0.15389099 7.32317108 -1.25 4.375 C-1.4975 3.59125 -1.745 2.8075 -2 2 C-1.34 2 -0.68 2 0 2 C0 1.34 0 0.68 0 0 Z " fill="#F0C41A" transform="translate(127,95)"/>
<path d="M0 0 C0.99 0 1.98 0 3 0 C3.185625 1.2065625 3.185625 1.2065625 3.375 2.4375 C3.58125 3.283125 3.7875 4.12875 4 5 C4.66 5.33 5.32 5.66 6 6 C6.33 4.35 6.66 2.7 7 1 C7.66 1 8.32 1 9 1 C8.34 2.98 7.68 4.96 7 7 C4.69 7 2.38 7 0 7 C0 4.69 0 2.38 0 0 Z " fill="#EFC319" transform="translate(98,26)"/>
<path d="M0 0 C0.268125 0.639375 0.53625 1.27875 0.8125 1.9375 C1.88667752 4.33131686 1.88667752 4.33131686 5 5 C4.67 5.99 4.34 6.98 4 8 C1.69 7.67 -0.62 7.34 -3 7 C-3.33 7.99 -3.66 8.98 -4 10 C-3.5205537 5.78087253 -2.83374881 3.20336822 0 0 Z " fill="#CDA315" transform="translate(130,87)"/>
<path d="M0 0 C0 3.63 0 7.26 0 11 C-0.33 11 -0.66 11 -1 11 C-1.33 8.69 -1.66 6.38 -2 4 C-3.98 4.99 -3.98 4.99 -6 6 C-5.625 3.5625 -5.625 3.5625 -5 1 C-3 0 -3 0 0 0 Z " fill="#4D5C0E" transform="translate(104,130)"/>
<path d="M0 0 C1.32 0.33 2.64 0.66 4 1 C0.9315153 3.97550031 -0.46236331 4.96474513 -4.8125 5.25 C-5.864375 5.1675 -6.91625 5.085 -8 5 C-7.67 4.01 -7.34 3.02 -7 2 C-4.69 2 -2.38 2 0 2 C0 1.34 0 0.68 0 0 Z " fill="#5D4E17" transform="translate(111,103)"/>
<path d="M0 0 C2.64 0 5.28 0 8 0 C8 0.33 8 0.66 8 1 C6.35 1 4.7 1 3 1 C2.67 1.99 2.34 2.98 2 4 C-3.28 3.67 -8.56 3.34 -14 3 C-13.67 2.34 -13.34 1.68 -13 1 C-8.71 1.33 -4.42 1.66 0 2 C0 1.34 0 0.68 0 0 Z " fill="#CFA617" transform="translate(102,108)"/>
<path d="M0 0 C0.99 0.33 1.98 0.66 3 1 C2.01 1.99 1.02 2.98 0 4 C2.31 4 4.62 4 7 4 C4.37801226 6.15377564 2.35595828 7.40072174 -1 8 C-1.625 5.125 -1.625 5.125 -2 2 C-1.34 1.34 -0.68 0.68 0 0 Z " fill="#E5B616" transform="translate(58,90)"/>
<path d="M0 0 C1.62283808 3.24567617 0.54725234 6.63839624 0.0625 10.125 C-0.03740234 10.87910156 -0.13730469 11.63320312 -0.24023438 12.41015625 C-0.48798404 14.27417753 -0.74328057 16.13719288 -1 18 C-1.33 18 -1.66 18 -2 18 C-2.16798051 15.72926348 -2.33434113 13.45840707 -2.5 11.1875 C-2.5928125 9.92292969 -2.685625 8.65835938 -2.78125 7.35546875 C-2.91914781 5.24021483 -3 3.11974408 -3 1 C-2.01 0.67 -1.02 0.34 0 0 Z " fill="#D1A615" transform="translate(59,60)"/>
<path d="M0 0 C0 0.99 0 1.98 0 3 C-0.66 3.66 -1.32 4.32 -2 5 C-1.67801034 8.09926819 -1.67801034 8.09926819 -1 11 C-3.99324263 9.9024777 -4.84610901 9.32317108 -6.25 6.375 C-6.4975 5.59125 -6.745 4.8075 -7 4 C-6.401875 3.896875 -5.80375 3.79375 -5.1875 3.6875 C-2.71756736 2.91123545 -1.67748765 1.92911079 0 0 Z " fill="#C8A217" transform="translate(126,37)"/>
<path d="M0 0 C2.74554724 2.37115444 3.95117186 4.53079925 5 8 C5.125 11.3125 5.125 11.3125 5 14 C4.34 13.67 3.68 13.34 3 13 C2.66073053 10.66752239 2.32759934 8.33414529 2 6 C1.34 5.34 0.68 4.68 0 4 C0 2.68 0 1.36 0 0 Z " fill="#675518" transform="translate(126,50)"/>
<path d="M0 0 C4.75 0.875 4.75 0.875 7 2 C6.67 2.66 6.34 3.32 6 4 C5.01 4.33 4.02 4.66 3 5 C2.34 5.66 1.68 6.32 1 7 C0.67 4.69 0.34 2.38 0 0 Z " fill="#CAA217" transform="translate(72,102)"/>
<path d="M0 0 C-2.31 1.65 -4.62 3.3 -7 5 C-7.66 3.35 -8.32 1.7 -9 0 C-3.375 -1.125 -3.375 -1.125 0 0 Z " fill="#E0B317" transform="translate(135,48)"/>
<path d="M0 0 C1.95418308 2.93127462 2.64700993 4.55834679 3 8 C2.34 8.66 1.68 9.32 1 10 C-0.32 10 -1.64 10 -3 10 C-3 9.34 -3 8.68 -3 8 C-2.01 7.34 -1.02 6.68 0 6 C-0.185625 5.38125 -0.37125 4.7625 -0.5625 4.125 C-1 2 -1 2 0 0 Z " fill="#E5B616" transform="translate(118,103)"/>
<path d="M0 0 C0.33 0 0.66 0 1 0 C1 1.98 1 3.96 1 6 C-2.3 6 -5.6 6 -9 6 C-6.08235 4.0549 -4.37462715 3.54723683 -1 3 C-0.67 2.01 -0.34 1.02 0 0 Z " fill="#EEBF18" transform="translate(56,64)"/>
<path d="M0 0 C1.23556641 0.01740234 1.23556641 0.01740234 2.49609375 0.03515625 C3.32238281 0.04417969 4.14867187 0.05320313 5 0.0625 C5.63808594 0.07410156 6.27617188 0.08570313 6.93359375 0.09765625 C6.93359375 0.42765625 6.93359375 0.75765625 6.93359375 1.09765625 C4.62359375 1.42765625 2.31359375 1.75765625 -0.06640625 2.09765625 C-0.06640625 3.08765625 -0.06640625 4.07765625 -0.06640625 5.09765625 C-1.38640625 5.09765625 -2.70640625 5.09765625 -4.06640625 5.09765625 C-2.94676868 0.13926128 -2.94676868 0.13926128 0 0 Z " fill="#EDC019" transform="translate(52.06640625,57.90234375)"/>
<path d="M0 0 C0 0.99 0 1.98 0 3 C-1.1446875 3.4021875 -1.1446875 3.4021875 -2.3125 3.8125 C-4.87380884 4.94424112 -6.19692938 5.91223401 -8 8 C-8 5 -8 5 -7 3 C-4.69034152 1.94647157 -2.3570226 0.94280904 0 0 Z " fill="#816917" transform="translate(79,38)"/>
<path d="M0 0 C0.66 0 1.32 0 2 0 C2.33 0.66 2.66 1.32 3 2 C5.11846285 2.68729254 5.11846285 2.68729254 7.5625 3.125 C8.80193359 3.37636719 8.80193359 3.37636719 10.06640625 3.6328125 C10.70449219 3.75398438 11.34257812 3.87515625 12 4 C12 4.33 12 4.66 12 5 C8.04 4.67 4.08 4.34 0 4 C0 2.68 0 1.36 0 0 Z " fill="#E7BA18" transform="translate(133,78)"/>
<path d="M0 0 C1.98 0 3.96 0 6 0 C6 0.66 6 1.32 6 2 C4.68 2 3.36 2 2 2 C1.67 2.99 1.34 3.98 1 5 C0.34 5 -0.32 5 -1 5 C-0.67 3.35 -0.34 1.7 0 0 Z " fill="#E3B315" transform="translate(56,48)"/>
<path d="M0 0 C0.99 0 1.98 0 3 0 C3 2.64 3 5.28 3 8 C2.01 8.495 2.01 8.495 1 9 C0.67 6.03 0.34 3.06 0 0 Z " fill="#ECBC17" transform="translate(97,111)"/>
<path d="M0 0 C1.65 0 3.3 0 5 0 C4.01 1.485 4.01 1.485 3 3 C2.29187186 5.32108669 1.61975848 7.65377147 1 10 C-0.04005702 6.61981469 -0.08004482 3.5219721 0 0 Z " fill="#DFB116" transform="translate(82,108)"/>
<path d="M0 0 C0.66 0.33 1.32 0.66 2 1 C0.35 2.98 -1.3 4.96 -3 7 C-4.32 6.34 -5.64 5.68 -7 5 C-6.01 4.67 -5.02 4.34 -4 4 C-2.62804426 2.70644173 -1.28817344 1.37701298 0 0 Z " fill="#E2B316" transform="translate(117,31)"/>
<path d="M0 0 C0.0825 0.61875 0.165 1.2375 0.25 1.875 C0.81258459 4.18437567 0.81258459 4.18437567 3.0625 5.25 C3.701875 5.4975 4.34125 5.745 5 6 C2.36 6 -0.28 6 -3 6 C-3 5.01 -3 4.02 -3 3 C-2.01 3 -1.02 3 0 3 C0 2.01 0 1.02 0 0 Z " fill="#CAA116" transform="translate(105,30)"/>
<path d="M0 0 C0.33 1.32 0.66 2.64 1 4 C-1.31 4.33 -3.62 4.66 -6 5 C-4.06745228 2.9754262 -2.36841312 1.57894208 0 0 Z " fill="#FFEF16" transform="translate(152,103)"/>
</svg>
